<svg width="12" height="8" viewBox="0 0 12 8" fill="none" xmlns="http://www.w3.org/2000/svg">
<path d="M10.9358 0.702271C10.7572 0.554602 10.5274 0.483507 10.2966 0.504475C10.0658 0.525442 9.85262 0.636772 9.70352 0.814213L5.99999 5.25783L2.2964 0.814286C2.14773 0.636149 1.93438 0.524369 1.70329 0.503536C1.4722 0.482703 1.2423 0.554523 1.06416 0.703197C0.886027 0.851871 0.774247 1.06522 0.753414 1.29631C0.732581 1.5274 0.804401 1.7573 0.953075 1.93544L5.32832 7.18567C5.4104 7.2841 5.5131 7.36328 5.62917 7.41762C5.74524 7.47196 5.87183 7.50013 5.99999 7.50013C6.12814 7.50013 6.25473 7.47196 6.3708 7.41762C6.48687 7.36328 6.58957 7.2841 6.67165 7.18567L11.0469 1.93537C11.1955 1.75705 11.2673 1.52703 11.2465 1.29584C11.2256 1.06464 11.1139 0.851157 10.9358 0.702271Z"/>
</svg>
