<svg width="7" height="11" viewBox="0 0 7 11" fill="none" xmlns="http://www.w3.org/2000/svg">
<path d="M0.202271 0.314185C0.0546017 0.492817 -0.0164933 0.722568 0.00447411 0.953383C0.0254415 1.1842 0.136772 1.39738 0.314212 1.54648L4.75783 5.25001L0.314286 8.9536C0.136149 9.10227 0.0243691 9.31562 0.00353599 9.54671C-0.0172971 9.7778 0.0545231 10.0077 0.203197 10.1858C0.351871 10.364 0.56522 10.4758 0.79631 10.4966C1.0274 10.5174 1.2573 10.4456 1.43544 10.2969L6.68567 5.92168C6.7841 5.8396 6.86328 5.7369 6.91762 5.62083C6.97196 5.50476 7.00013 5.37817 7.00013 5.25001C7.00013 5.12186 6.97196 4.99527 6.91762 4.8792C6.86328 4.76313 6.7841 4.66043 6.68567 4.57835L1.43536 0.203104C1.25705 0.0544815 1.02703 -0.0172968 0.795836 0.00353047C0.564638 0.0243568 0.351157 0.136086 0.202271 0.314185Z" fill="#004ED3"/>
</svg>
