<svg width="24" height="24" viewBox="0 0 24 24" fill="none" xmlns="http://www.w3.org/2000/svg">
<path d="M7 18C5.895 18 5.01 18.895 5.01 20C5.01 21.105 5.895 22 7 22C8.105 22 9 21.105 9 20C9 18.895 8.105 18 7 18ZM1 2V4H3L6.595 11.585L5.245 14.035C5.09 14.325 5 14.65 5 15C5 16.105 5.895 17 7 17H19V15H7.425C7.285 15 7.175 14.89 7.175 14.75C7.175 14.705 7.185 14.665 7.205 14.63L8.1 13H15.55C16.3 13 16.955 12.585 17.3 11.97L20.875 5.48C20.955 5.34 21 5.175 21 5C21 4.445 20.55 4 20 4H5.215L4.265 2H1ZM17 18C15.895 18 15.01 18.895 15.01 20C15.01 21.105 15.895 22 17 22C18.105 22 19 21.105 19 20C19 18.895 18.105 18 17 18Z" fill="white"/>
</svg>
