<svg width="64" height="64" viewBox="0 0 64 64" fill="none" xmlns="http://www.w3.org/2000/svg">
<path d="M18.6667 10.6667V29.3333L32 22.6667L45.3333 29.3333V10.6667H53.3333C54.0406 10.6667 54.7189 10.9476 55.219 11.4477C55.7191 11.9478 56 12.6261 56 13.3333V56C56 56.7072 55.7191 57.3855 55.219 57.8856C54.7189 58.3857 54.0406 58.6667 53.3333 58.6667H10.6667C9.95942 58.6667 9.28115 58.3857 8.78105 57.8856C8.28095 57.3855 8 56.7072 8 56V13.3333C8 12.6261 8.28095 11.9478 8.78105 11.4477C9.28115 10.9476 9.95942 10.6667 10.6667 10.6667H18.6667ZM32 21.3333L20 8H44L32 21.3333ZM34.6667 29.9627L32 28.6293L29.3333 29.9627V53.3333H34.6667V29.9627ZM40 37.3333V42.6667H50.6667V37.3333H40Z" fill="#3671D4"/>
</svg>
