<svg width="58" height="59" viewBox="0 0 58 59" fill="none" xmlns="http://www.w3.org/2000/svg">
<path d="M47.3635 6.66107C45.3229 6.66107 43.6533 8.35939 43.6533 10.4351C43.6533 12.5109 45.3229 14.2092 47.3635 14.2092C49.4041 14.2092 51.0737 12.5109 51.0737 10.4351C51.0737 8.35939 49.4041 6.66107 47.3635 6.66107ZM47.3635 8.54811C48.3987 8.54811 49.2186 9.38213 49.2186 10.4351C49.2186 11.488 48.3987 12.3221 47.3635 12.3221C46.3284 12.3221 45.5084 11.488 45.5084 10.4351C45.5084 9.38213 46.3284 8.54811 47.3635 8.54811ZM1.81392 30.5697C0.724987 31.6641 0.732407 33.4794 1.81392 34.5777L23.6296 56.7691C24.7056 57.8673 26.4902 57.8767 27.568 56.7691L54.5149 29.0223C54.973 28.5505 55.5017 28.1165 55.9395 27.407C56.3755 26.6975 56.637 25.7653 56.637 24.4934V3.83053C56.637 2.27751 55.3793 1 53.8544 1H33.4486C31.3004 1 30.0649 2.1775 29.0891 3.16064L1.81392 30.5697ZM3.11804 31.9132L30.3896 4.50231C31.3783 3.50974 31.8884 2.88702 33.4505 2.88702H53.8563C54.385 2.88702 54.7838 3.29084 54.7838 3.83053V24.4972C54.7838 25.5294 54.6113 26.0163 54.3683 26.4088C54.1271 26.8051 53.7302 27.1522 53.1996 27.6995L26.2453 55.4387C25.8799 55.8161 25.3178 55.8161 24.9412 55.4349L3.12546 33.2435C2.74888 32.8605 2.74517 32.285 3.11804 31.9113V31.9132Z" fill="#3671D4" stroke="#3671D4" stroke-width="2"/>
<g clip-path="url(#clip0_280_1601)">
<path d="M35.5174 30.3558L35.5165 30.2522L35.4427 30.1796L35.4421 30.179L35.3682 30.1064L35.2646 30.1073L15.8524 30.2757L15.6024 30.2779L15.6046 30.5279L15.6198 32.2925L15.6219 32.5425L15.8719 32.5403L35.2848 32.3725L35.5348 32.3704L35.5326 32.1204L35.5174 30.3558ZM22.2888 38.2164C22.2964 39.1019 22.6555 39.948 23.287 40.5688C23.9185 41.1895 24.7707 41.5339 25.6561 41.5263C26.5416 41.5186 27.3877 41.1596 28.0084 40.5281C28.6292 39.8966 28.9736 39.0444 28.966 38.1589C28.9583 37.2735 28.5993 36.4274 27.9678 35.8066C27.3363 35.1859 26.4841 34.8415 25.5986 34.8491C24.7132 34.8567 23.867 35.2158 23.2463 35.8473C22.6256 36.4788 22.2812 37.331 22.2888 38.2164ZM25.6366 39.2614C25.3519 39.2638 25.0778 39.1531 24.8747 38.9534C24.6716 38.7538 24.5562 38.4817 24.5537 38.1969C24.5513 37.9122 24.662 37.6381 24.8616 37.435C25.0613 37.2319 25.3334 37.1165 25.6181 37.114C25.9029 37.1116 26.177 37.2223 26.3801 37.4219C26.5832 37.6216 26.6986 37.8937 26.7011 38.1785C26.7035 38.4632 26.5928 38.7373 26.3931 38.9404C26.1935 39.1435 25.9214 39.2589 25.6366 39.2614ZM22.4357 25.7641C22.607 26.1677 22.8561 26.5337 23.1688 26.841C23.8003 27.4617 24.6525 27.8062 25.5379 27.7985C26.4234 27.7909 27.2695 27.4319 27.8902 26.8004C28.5109 26.1689 28.8554 25.3167 28.8477 24.4312C28.8401 23.5458 28.4811 22.6996 27.8496 22.0789C27.5369 21.7716 27.1667 21.5288 26.7602 21.3645C26.3537 21.2002 25.9188 21.1176 25.4804 21.1214C25.042 21.1252 24.6086 21.2153 24.205 21.3865C23.8014 21.5578 23.4355 21.8069 23.1281 22.1196C22.8208 22.4322 22.578 22.8024 22.4137 23.2089C22.2494 23.6154 22.1668 24.0503 22.1706 24.4887C22.1744 24.9271 22.2645 25.3605 22.4357 25.7641ZM25.5184 25.5336C25.2337 25.5361 24.9596 25.4253 24.7565 25.2257C24.5534 25.0261 24.4379 24.754 24.4355 24.4692C24.433 24.1844 24.5438 23.9104 24.7434 23.7073C24.943 23.5042 25.2152 23.3887 25.4999 23.3863C25.7847 23.3838 26.0588 23.4946 26.2618 23.6942C26.4649 23.8938 26.5804 24.166 26.5829 24.4507C26.5853 24.7355 26.4745 25.0095 26.2749 25.2126C26.0753 25.4157 25.8032 25.5312 25.5184 25.5336Z" fill="#3671D4" stroke="#3671D4" stroke-width="0.5"/>
</g>
<defs>
<clipPath id="clip0_280_1601">
<rect width="21.1796" height="21.1796" fill="white" transform="translate(25.4393 16.3481) rotate(44.5066)"/>
</clipPath>
</defs>
</svg>
