<svg width="64" height="64" viewBox="0 0 64 64" fill="none" xmlns="http://www.w3.org/2000/svg">
<path d="M24.8801 30.6667H30.6667C33.8493 30.6667 36.9016 31.931 39.152 34.1814C41.4025 36.4318 42.6667 39.4841 42.6667 42.6667H23.9974L24.0001 45.3333H45.3334V42.6667C45.325 39.8292 44.5052 37.0534 42.9707 34.6667H50.6667C53.1874 34.666 55.6567 35.3798 57.7882 36.7255C59.9196 38.0711 61.626 39.9933 62.7094 42.2693C56.4027 50.592 46.1921 56 34.6667 56C27.3041 56 21.0667 54.4267 16.0001 51.6667V26.856C19.2444 27.3207 22.308 28.6354 24.8801 30.6667ZM10.6667 24C11.3199 24.0001 11.9503 24.2399 12.4384 24.6739C12.9265 25.1079 13.2383 25.706 13.3147 26.3547L13.3334 26.6667V50.6667C13.3334 51.3739 13.0525 52.0522 12.5524 52.5523C12.0523 53.0524 11.374 53.3333 10.6667 53.3333H5.33341C4.62617 53.3333 3.94789 53.0524 3.4478 52.5523C2.9477 52.0522 2.66675 51.3739 2.66675 50.6667V26.6667C2.66675 25.9594 2.9477 25.2811 3.4478 24.781C3.94789 24.281 4.62617 24 5.33341 24H10.6667Z" fill="#3671D4"/>
<path d="M45.6875 23.625C44.6432 23.625 43.6417 23.2102 42.9033 22.4717C42.1648 21.7333 41.75 20.7318 41.75 19.6875C41.75 18.6432 42.1648 17.6417 42.9033 16.9033C43.6417 16.1648 44.6432 15.75 45.6875 15.75C46.7318 15.75 47.7333 16.1648 48.4717 16.9033C49.2102 17.6417 49.625 18.6432 49.625 19.6875C49.625 20.7318 49.2102 21.7333 48.4717 22.4717C47.7333 23.2102 46.7318 23.625 45.6875 23.625ZM45.6875 21.375C46.1351 21.375 46.5643 21.1972 46.8807 20.8807C47.1972 20.5643 47.375 20.1351 47.375 19.6875C47.375 19.2399 47.1972 18.8107 46.8807 18.4943C46.5643 18.1778 46.1351 18 45.6875 18C45.2399 18 44.8107 18.1778 44.4943 18.4943C44.1778 18.8107 44 19.2399 44 19.6875C44 20.1351 44.1778 20.5643 44.4943 20.8807C44.8107 21.1972 45.2399 21.375 45.6875 21.375ZM33.3125 11.25C32.7954 11.25 32.2834 11.1482 31.8057 10.9503C31.328 10.7524 30.8939 10.4624 30.5283 10.0967C30.1626 9.7311 29.8726 9.29704 29.6747 8.81932C29.4768 8.3416 29.375 7.82958 29.375 7.3125C29.375 6.79542 29.4768 6.2834 29.6747 5.80568C29.8726 5.32796 30.1626 4.8939 30.5283 4.52827C30.8939 4.16264 31.328 3.8726 31.8057 3.67472C32.2834 3.47685 32.7954 3.375 33.3125 3.375C34.3568 3.375 35.3583 3.78984 36.0967 4.52827C36.8352 5.26669 37.25 6.26821 37.25 7.3125C37.25 8.35679 36.8352 9.35831 36.0967 10.0967C35.3583 10.8352 34.3568 11.25 33.3125 11.25ZM33.3125 9C33.7601 9 34.1893 8.82221 34.5057 8.50574C34.8222 8.18928 35 7.76005 35 7.3125C35 6.86495 34.8222 6.43572 34.5057 6.11926C34.1893 5.80279 33.7601 5.625 33.3125 5.625C32.8649 5.625 32.4357 5.80279 32.1193 6.11926C31.8028 6.43572 31.625 6.86495 31.625 7.3125C31.625 7.76005 31.8028 8.18928 32.1193 8.50574C32.4357 8.82221 32.8649 9 33.3125 9ZM47.4549 3.95438L49.0456 5.54513L31.5462 23.0456L29.9555 21.4549L47.4538 3.95438H47.4549Z" fill="#3671D4"/>
</svg>
