<svg width="53" height="52" viewBox="0 0 53 52" fill="none" xmlns="http://www.w3.org/2000/svg">
<path d="M41.4305 47.6667H10.9028C9.16779 47.6667 7.50389 46.9819 6.27709 45.7629C5.05029 44.5439 4.36108 42.8906 4.36108 41.1667V6.50004C4.36108 5.92541 4.59082 5.3743 4.99975 4.96798C5.40869 4.56165 5.96332 4.33337 6.54164 4.33337H37.0694C37.6477 4.33337 38.2024 4.56165 38.6113 4.96798C39.0202 5.3743 39.25 5.92541 39.25 6.50004V32.5H47.9722V41.1667C47.9722 42.8906 47.283 44.5439 46.0562 45.7629C44.8294 46.9819 43.1655 47.6667 41.4305 47.6667ZM39.25 36.8334V41.1667C39.25 41.7413 39.4797 42.2925 39.8886 42.6988C40.2976 43.1051 40.8522 43.3334 41.4305 43.3334C42.0089 43.3334 42.5635 43.1051 42.9724 42.6988C43.3814 42.2925 43.6111 41.7413 43.6111 41.1667V36.8334H39.25ZM34.8889 43.3334V8.66671H8.7222V41.1667C8.7222 41.7413 8.95193 42.2925 9.36087 42.6988C9.7698 43.1051 10.3244 43.3334 10.9028 43.3334H34.8889ZM13.0833 15.1667H30.5278V19.5H13.0833V15.1667ZM13.0833 23.8334H30.5278V28.1667H13.0833V23.8334ZM13.0833 32.5H23.9861V36.8334H13.0833V32.5Z" fill="#FFAE35"/>
</svg>
