<svg width="53" height="52" viewBox="0 0 53 52" fill="none" xmlns="http://www.w3.org/2000/svg">
<path d="M8.97852 13.8971L1.90698 6.87272L4.99247 3.80688L12.0618 10.8334H45.2979C45.6377 10.8334 45.9729 10.9123 46.2766 11.0638C46.5804 11.2154 46.8442 11.4354 47.0472 11.7063C47.2501 11.9772 47.3865 12.2915 47.4455 12.6241C47.5045 12.9567 47.4844 13.2984 47.3868 13.6219L42.1535 30.9552C42.0189 31.4017 41.7429 31.7932 41.3666 32.0715C40.9902 32.3498 40.5336 32.5001 40.0645 32.5001H13.3396V36.8334H37.3257V41.1667H11.1591C10.5808 41.1667 10.0261 40.9384 9.61719 40.5321C9.20826 40.1258 8.97852 39.5747 8.97852 39.0001V13.8971ZM13.3396 15.1667V28.1667H38.4422L42.3672 15.1667H13.3396ZM12.2494 49.8334C11.3819 49.8334 10.5499 49.491 9.93653 48.8815C9.32313 48.272 8.97852 47.4453 8.97852 46.5834C8.97852 45.7214 9.32313 44.8948 9.93653 44.2853C10.5499 43.6758 11.3819 43.3334 12.2494 43.3334C13.1168 43.3334 13.9488 43.6758 14.5622 44.2853C15.1756 44.8948 15.5202 45.7214 15.5202 46.5834C15.5202 47.4453 15.1756 48.272 14.5622 48.8815C13.9488 49.491 13.1168 49.8334 12.2494 49.8334ZM38.416 49.8334C37.5485 49.8334 36.7166 49.491 36.1032 48.8815C35.4898 48.272 35.1452 47.4453 35.1452 46.5834C35.1452 45.7214 35.4898 44.8948 36.1032 44.2853C36.7166 43.6758 37.5485 43.3334 38.416 43.3334C39.2835 43.3334 40.1154 43.6758 40.7288 44.2853C41.3422 44.8948 41.6869 45.7214 41.6869 46.5834C41.6869 47.4453 41.3422 48.272 40.7288 48.8815C40.1154 49.491 39.2835 49.8334 38.416 49.8334Z" fill="#FFAE35"/>
</svg>
