<svg width="79" height="116" viewBox="0 0 79 116" fill="none" xmlns="http://www.w3.org/2000/svg">
<path fill-rule="evenodd" clip-rule="evenodd" d="M70.1342 116C55.6823 76.107 39.798 76.107 39.798 76.107C39.798 76.107 24.8897 76.107 9.0686 116C9.0686 76.107 9.06862 47.3157 39.798 0C68.3813 47.3157 71.2446 76.107 70.1342 116Z" fill="#004ED3"/>
<path fill-rule="evenodd" clip-rule="evenodd" d="M0 116H15.6293C11.6516 114.315 11.505 105.021 11.2011 102.923C8.91167 106.663 5.40838 116 0.000158464 116H0Z" fill="#004ED3"/>
<path fill-rule="evenodd" clip-rule="evenodd" d="M78.686 116H63.3611C67.3388 114.315 67.4855 105.021 67.7895 102.923C70.0789 106.663 73.2779 116 78.6861 116H78.686Z" fill="#004ED3"/>
<path fill-rule="evenodd" clip-rule="evenodd" d="M22.1089 84.4349C18.984 88.0644 16.1121 92.8836 11.8858 101.016C11.6479 93.7123 13.0364 79.317 13.839 73.324C15.0569 64.2319 16.6868 57.1265 18.9568 52.1088C21.6205 54.368 22.5773 55.9933 26.7004 58.8491C29.5961 60.8548 35.201 61.8863 35.695 66.2367C37.2863 76.4414 29.8945 75.392 22.1089 84.4349Z" fill="#AFC6E9"/>
<path fill-rule="evenodd" clip-rule="evenodd" d="M49.0303 46.5296C49.0216 49.0214 48.0383 51.4102 46.2918 53.1818C44.5453 54.9534 42.1754 55.9663 39.6921 56.0023C39.6351 56.0023 39.577 56.0012 39.5211 56.0012C37.038 55.9174 34.6867 54.8598 32.9723 53.0556C31.2579 51.2515 30.3172 48.8447 30.3521 46.3522C30.3521 46.2933 30.3533 46.2331 30.3533 46.1754C30.362 43.6835 31.3455 41.2946 33.0921 39.5228C34.8387 37.7511 37.2087 36.7382 39.6921 36.702C39.7491 36.702 39.8072 36.7032 39.8632 36.7032C42.3462 36.787 44.6975 37.8446 46.4118 39.6487C48.1262 41.4529 49.0669 43.8597 49.0319 46.3522C49.0319 46.4111 49.0308 46.4712 49.0308 46.529L49.0303 46.5296H49.0303Z" fill="#AFC6E9"/>
<path fill-rule="evenodd" clip-rule="evenodd" d="M56.7204 83.4678C59.8452 87.0974 62.7172 91.9166 66.9435 100.049C67.1813 92.7452 65.7929 78.35 64.9903 72.357C63.7725 63.2649 62.1424 56.1594 59.8725 51.1417C57.2088 53.4009 56.252 55.0263 52.1289 57.8821C49.2333 59.8878 43.6283 60.9193 43.1343 65.2697C41.543 75.4744 48.9347 74.425 56.7204 83.4678Z" fill="#AFC6E9"/>
<path fill-rule="evenodd" clip-rule="evenodd" d="M33.3253 56.8931C28.2425 55.1449 25.1676 52.4415 23.1859 49.8584C19.8521 45.5129 21.5239 41.0623 23.6779 36.0223C25.8255 30.9973 34.3275 11.456 39.7929 11.491C44.7618 11.5227 52.7602 31.0246 54.5625 35.632C56.3648 40.2393 57.8574 46.0334 56.1466 49.3985C54.1062 53.4122 46.4307 56.9194 46.4307 56.9194C46.4307 56.9194 50.9409 52.6714 51.4652 48.8434C51.9895 45.0154 51.3758 42.7247 49.9238 40.095C47.4027 36.5427 43.718 34.3723 40.2148 34.3429C35.2853 34.4501 31.8231 36.3343 29.4992 39.9891C27.751 42.4374 27.391 47.2739 27.7834 48.9202C28.6003 52.1667 30.5711 55.0019 33.3252 56.8929L33.3253 56.8932V56.8931Z" fill="#AFC6E9"/>
</svg>
