<svg width="41" height="37" viewBox="0 0 41 37" fill="none" xmlns="http://www.w3.org/2000/svg">
<path d="M35.3162 34.3162C35.3162 34.7956 35.1258 35.2554 34.7868 35.5944C34.4478 35.9334 33.988 36.1239 33.5085 36.1239H8.20115C7.72172 36.1239 7.26193 35.9334 6.92293 35.5944C6.58392 35.2554 6.39347 34.7956 6.39347 34.3162V18.0471H0.970459L19.6383 1.07672C19.9711 0.773895 20.4049 0.606079 20.8548 0.606079C21.3048 0.606079 21.7386 0.773895 22.0714 1.07672L40.7392 18.0471H35.3162V34.3162ZM12.7203 21.6625C12.7203 23.8199 13.5774 25.8889 15.1029 27.4145C16.6284 28.94 18.6974 29.797 20.8548 29.797C23.0123 29.797 25.0813 28.94 26.6068 27.4145C28.1323 25.8889 28.9894 23.8199 28.9894 21.6625H25.374C25.374 22.861 24.8979 24.0105 24.0504 24.858C23.2029 25.7055 22.0534 26.1817 20.8548 26.1817C19.6563 26.1817 18.5068 25.7055 17.6593 24.858C16.8118 24.0105 16.3357 22.861 16.3357 21.6625H12.7203Z" fill="white"/>
</svg>
