<svg width="40" height="43" viewBox="0 0 40 43" fill="none" xmlns="http://www.w3.org/2000/svg">
<path d="M18.9876 18.0714L11.5338 25.5194L4.08009 18.0714C2.60672 16.5974 1.6035 14.7195 1.19726 12.6754C0.791021 10.6312 1.00001 8.51246 1.79781 6.58705C2.5956 4.66163 3.94638 3.016 5.67936 1.85821C7.41234 0.700419 9.44969 0.0824585 11.5338 0.0824585C13.618 0.0824585 15.6554 0.700419 17.3883 1.85821C19.1213 3.016 20.4721 4.66163 21.2699 6.58705C22.0677 8.51246 22.2767 10.6312 21.8704 12.6754C21.4642 14.7195 20.461 16.5974 18.9876 18.0714ZM11.5338 14.4499C12.5502 14.4499 13.525 14.0462 14.2437 13.3275C14.9624 12.6088 15.3661 11.6341 15.3661 10.6177C15.3661 9.60131 14.9624 8.62655 14.2437 7.90787C13.525 7.18918 12.5502 6.78542 11.5338 6.78542C10.5175 6.78542 9.54272 7.18918 8.82403 7.90787C8.10534 8.62655 7.70158 9.60131 7.70158 10.6177C7.70158 11.6341 8.10534 12.6088 8.82403 13.3275C9.54272 14.0462 10.5175 14.4499 11.5338 14.4499ZM36.2328 35.3166L28.779 42.7665L21.3253 35.3147C19.8519 33.8406 18.8487 31.9628 18.4424 29.9186C18.0362 27.8745 18.2452 25.7557 19.043 23.8303C19.8408 21.9049 21.1916 20.2593 22.9245 19.1015C24.6575 17.9437 26.6949 17.3257 28.779 17.3257C30.8632 17.3257 32.9005 17.9437 34.6335 19.1015C36.3665 20.2593 37.7173 21.9049 38.5151 23.8303C39.3129 25.7557 39.5219 27.8745 39.1156 29.9186C38.7094 31.9628 37.7062 33.8406 36.2328 35.3147V35.3166ZM28.779 31.6951C29.7954 31.6951 30.7702 31.2914 31.4889 30.5727C32.2075 29.854 32.6113 28.8793 32.6113 27.8629C32.6113 26.8465 32.2075 25.8717 31.4889 25.1531C30.7702 24.4344 29.7954 24.0306 28.779 24.0306C27.7627 24.0306 26.7879 24.4344 26.0692 25.1531C25.3505 25.8717 24.9468 26.8465 24.9468 27.8629C24.9468 28.8793 25.3505 29.854 26.0692 30.5727C26.7879 31.2914 27.7627 31.6951 28.779 31.6951Z" fill="white"/>
</svg>
