<svg width="42" height="41" viewBox="0 0 42 41" fill="none" xmlns="http://www.w3.org/2000/svg">
<path d="M35.8212 26.3265C37.1114 23.2609 37.4084 19.8681 36.6705 16.625C35.9325 13.3819 34.1966 10.4516 31.707 8.24613C29.2174 6.04067 26.0991 4.67094 22.7907 4.32952C19.4822 3.9881 16.15 4.69215 13.2624 6.34269L11.2899 2.88877C14.3076 1.16403 17.7248 0.260788 21.2006 0.269162C24.6765 0.277535 28.0893 1.19723 31.0987 2.9365C40.0268 8.09053 43.4469 19.1264 39.2851 28.3289L41.9536 29.8679L33.6717 34.2703L33.3436 24.8968L35.8212 26.3265ZM6.49176 13.9863C5.20155 17.0518 4.90455 20.4447 5.64253 23.6878C6.3805 26.9309 8.11634 29.8612 10.606 32.0666C13.0956 34.2721 16.2139 35.6418 19.5223 35.9832C22.8308 36.3247 26.163 35.6206 29.0506 33.9701L31.0231 37.424C28.0054 39.1487 24.5882 40.052 21.1123 40.0436C17.6365 40.0352 14.2237 39.1155 11.2143 37.3763C2.28621 32.2222 -1.13391 21.1864 3.0279 11.9839L0.357422 10.4468L8.63927 6.04443L8.96736 15.4179L6.48977 13.9882L6.49176 13.9863ZM14.197 24.1333H25.1334C25.3971 24.1333 25.6499 24.0285 25.8364 23.8421C26.0228 23.6556 26.1276 23.4027 26.1276 23.139C26.1276 22.8754 26.0228 22.6225 25.8364 22.436C25.6499 22.2496 25.3971 22.1448 25.1334 22.1448H17.1796C15.8612 22.1448 14.5968 21.6211 13.6645 20.6888C12.7323 19.7566 12.2085 18.4921 12.2085 17.1737C12.2085 15.8553 12.7323 14.5909 13.6645 13.6586C14.5968 12.7264 15.8612 12.2026 17.1796 12.2026H19.1681V10.2142H23.1449V12.2026H28.116V16.1795H17.1796C16.9159 16.1795 16.663 16.2842 16.4766 16.4707C16.2901 16.6572 16.1854 16.91 16.1854 17.1737C16.1854 17.4374 16.2901 17.6903 16.4766 17.8767C16.663 18.0632 16.9159 18.1679 17.1796 18.1679H25.1334C26.4518 18.1679 27.7162 18.6917 28.6485 19.6239C29.5807 20.5562 30.1045 21.8206 30.1045 23.139C30.1045 24.4575 29.5807 25.7219 28.6485 26.6541C27.7162 27.5864 26.4518 28.1101 25.1334 28.1101H23.1449V30.0986H19.1681V28.1101H14.197V24.1333Z" fill="white"/>
</svg>
