<svg width="44" height="44" viewBox="0 0 44 44" fill="none" xmlns="http://www.w3.org/2000/svg">
<path d="M37.4305 43.6667H6.90275C5.16779 43.6667 3.50389 42.9819 2.27709 41.7629C1.05029 40.5439 0.361084 38.8906 0.361084 37.1667V2.5C0.361084 1.92536 0.59082 1.37426 0.999754 0.967934C1.40869 0.561605 1.96332 0.333332 2.54164 0.333332H33.0694C33.6477 0.333332 34.2024 0.561605 34.6113 0.967934C35.0202 1.37426 35.25 1.92536 35.25 2.5V28.5H43.9722V37.1667C43.9722 38.8906 43.283 40.5439 42.0562 41.7629C40.8294 42.9819 39.1655 43.6667 37.4305 43.6667ZM35.25 32.8333V37.1667C35.25 37.7413 35.4797 38.2924 35.8886 38.6987C36.2976 39.1051 36.8522 39.3333 37.4305 39.3333C38.0089 39.3333 38.5635 39.1051 38.9724 38.6987C39.3814 38.2924 39.6111 37.7413 39.6111 37.1667V32.8333H35.25ZM30.8889 39.3333V4.66667H4.7222V37.1667C4.7222 37.7413 4.95193 38.2924 5.36087 38.6987C5.7698 39.1051 6.32443 39.3333 6.90275 39.3333H30.8889ZM9.08331 11.1667H26.5278V15.5H9.08331V11.1667ZM9.08331 19.8333H26.5278V24.1667H9.08331V19.8333ZM9.08331 28.5H19.9861V32.8333H9.08331V28.5Z" fill="white"/>
</svg>
