<svg width="45" height="40" viewBox="0 0 45 40" fill="none" xmlns="http://www.w3.org/2000/svg">
<path d="M2.91671 15.625H8.79171V39.125H2.91671C2.39733 39.125 1.89922 38.9187 1.53196 38.5514C1.1647 38.1842 0.958374 37.6861 0.958374 37.1667V17.5833C0.958374 17.064 1.1647 16.5658 1.53196 16.1986C1.89922 15.8313 2.39733 15.625 2.91671 15.625ZM13.2822 13.0929L25.8155 0.559543C25.9821 0.392485 26.2034 0.291186 26.4387 0.274275C26.674 0.257365 26.9075 0.325979 27.0962 0.467501L28.7667 1.72083C29.2306 2.06911 29.5811 2.54696 29.7738 3.09413C29.9665 3.64129 29.9929 4.23327 29.8497 4.79542L27.5917 13.6667H40.125C41.1638 13.6667 42.16 14.0793 42.8945 14.8138C43.6291 15.5484 44.0417 16.5446 44.0417 17.5833V21.7037C44.0422 22.2155 43.9424 22.7225 43.748 23.1959L37.6869 37.9128C37.5391 38.2716 37.2879 38.5784 36.9654 38.7942C36.6429 39.01 36.2635 39.1252 35.8755 39.125H14.6667C14.1473 39.125 13.6492 38.9187 13.282 38.5514C12.9147 38.1842 12.7084 37.6861 12.7084 37.1667V14.4774C12.7085 13.9581 12.9149 13.46 13.2822 13.0929Z" fill="white"/>
</svg>
