<svg width="35" height="35" viewBox="0 0 35 35" fill="none" xmlns="http://www.w3.org/2000/svg">
<path d="M17.5 35C27.165 35 35 27.165 35 17.5C35 7.83502 27.165 0 17.5 0C7.83502 0 0 7.83502 0 17.5C0 27.165 7.83502 35 17.5 35Z" fill="#4D76A1"/>
<path fill-rule="evenodd" clip-rule="evenodd" d="M16.8369 25.1768H18.2109C18.2109 25.1768 18.6279 25.1289 18.8399 24.9034C19.0381 24.6914 19.0313 24.3018 19.0313 24.3018C19.0313 24.3018 19.0039 22.4561 19.8584 22.1895C20.6992 21.9229 21.7861 23.9668 22.9346 24.7598C23.8027 25.3545 24.459 25.2246 24.459 25.2246L27.5283 25.1836C27.5283 25.1836 29.1348 25.0879 28.3692 23.8233C28.3076 23.7207 27.9248 22.8868 26.086 21.1846C24.1651 19.4004 24.418 19.6875 26.7354 16.5977C28.1504 14.7178 28.711 13.5694 28.5332 13.0772C28.3623 12.6055 27.3301 12.7354 27.3301 12.7354L23.8711 12.7559C23.8711 12.7559 23.6182 12.7217 23.4268 12.8311C23.2422 12.9405 23.1192 13.2002 23.1192 13.2002C23.1192 13.2002 22.5723 14.6563 21.8408 15.8936C20.3027 18.5049 19.6875 18.6416 19.4346 18.4844C18.8467 18.1016 18.9971 16.9668 18.9971 16.1534C18.9971 13.6241 19.3799 12.5645 18.252 12.2911C17.876 12.2022 17.6025 12.1407 16.6387 12.1338C15.4082 12.1202 14.3623 12.1338 13.7676 12.4278C13.3779 12.6192 13.0703 13.0498 13.2549 13.0703C13.4805 13.0977 14 13.2139 14.2734 13.583C14.6289 14.0616 14.6152 15.1485 14.6152 15.1485C14.6152 15.1485 14.8203 18.1289 14.1367 18.4981C13.6719 18.751 13.0293 18.2315 11.6621 15.8662C10.958 14.6494 10.4316 13.3096 10.4316 13.3096C10.4316 13.3096 10.3291 13.0567 10.1445 12.9268C9.91895 12.7627 9.61133 12.7149 9.61133 12.7149L6.33008 12.7354C6.33008 12.7354 5.83789 12.7491 5.65332 12.961C5.49609 13.1524 5.63965 13.5489 5.63965 13.5489C5.63965 13.5489 8.20996 19.5645 11.1221 22.5928C13.8086 25.3614 16.8369 25.1768 16.8369 25.1768Z" fill="white"/>
</svg>
