<svg width="35" height="35" viewBox="0 0 35 35" fill="none" xmlns="http://www.w3.org/2000/svg">
<path d="M17.5 35C27.165 35 35 27.165 35 17.5C35 7.83502 27.165 0 17.5 0C7.83502 0 0 7.83502 0 17.5C0 27.165 7.83502 35 17.5 35Z" fill="#25D366"/>
<path d="M25.2509 9.70434C23.1941 7.64535 20.4594 6.51113 17.5457 6.50977C11.5426 6.50977 6.65574 11.3955 6.65383 17.4011C6.65273 19.3211 7.15449 21.195 8.10742 22.846L6.5625 28.4903L12.3361 26.976C13.9273 27.8431 15.7183 28.3005 17.5413 28.3014H17.5459C23.549 28.3014 28.435 23.4148 28.4375 17.4095C28.4389 14.4996 27.3066 11.763 25.2509 9.70434ZM17.5459 26.4617H17.5424C15.9173 26.4611 14.3243 26.0247 12.9341 25.2L12.6036 25.0037L9.17738 25.9025L10.0915 22.5622L9.87629 22.2188C8.96984 20.7777 8.49105 19.1122 8.49215 17.4011C8.49379 12.41 12.5552 8.34918 17.5487 8.34918C19.967 8.34973 22.2395 9.29281 23.949 11.0043C25.6583 12.7154 26.5989 14.9896 26.5984 17.4087C26.5967 22.4006 22.5354 26.4617 17.5459 26.4617ZM22.5116 19.6818C22.2392 19.5454 20.9013 18.8877 20.6516 18.7961C20.402 18.7054 20.2213 18.6602 20.0397 18.9326C19.8581 19.2049 19.3367 19.8182 19.1775 19.9998C19.0189 20.1814 18.8604 20.2043 18.588 20.0679C18.3157 19.9314 17.439 19.6443 16.4002 18.7168C15.5909 17.9958 15.0445 17.1038 14.8859 16.8315C14.7273 16.5591 14.869 16.4123 15.0054 16.2764C15.1279 16.1545 15.2778 15.9587 15.4137 15.7995C15.5496 15.6404 15.595 15.5269 15.6857 15.3456C15.7765 15.1641 15.7314 15.0052 15.663 14.869C15.5947 14.7326 15.0505 13.393 14.8241 12.848C14.6029 12.3173 14.3787 12.3892 14.2119 12.381C14.0528 12.3734 13.8715 12.3712 13.6902 12.3712C13.5089 12.3712 13.2139 12.4393 12.9645 12.7119C12.7154 12.9842 12.0121 13.6424 12.0121 14.9825C12.0121 16.3218 12.9872 17.6163 13.1234 17.7975C13.2595 17.9788 15.0423 20.7282 17.7723 21.907C18.4215 22.187 18.9287 22.3546 19.3238 22.4804C19.9757 22.688 20.5691 22.6582 21.0383 22.5882C21.5611 22.5102 22.6483 21.93 22.8755 21.2943C23.1022 20.6588 23.1022 20.1141 23.0336 20.0004C22.9649 19.8863 22.7834 19.8182 22.5116 19.6818Z" fill="white"/>
</svg>
