<svg width="35" height="35" viewBox="0 0 35 35" fill="none" xmlns="http://www.w3.org/2000/svg">
<path d="M17.5 35C27.165 35 35 27.165 35 17.5C35 7.83502 27.165 0 17.5 0C7.83502 0 0 7.83502 0 17.5C0 27.165 7.83502 35 17.5 35Z" fill="#22A6DC"/>
<path d="M26.0176 10.0693L22.8935 25.8261C22.8935 25.8261 22.456 26.9198 21.2529 26.3935L14.041 20.8632L11.416 19.5986L6.99999 18.1152C6.99999 18.1152 6.32323 17.8759 6.25487 17.3495C6.18651 16.8232 7.02049 16.5429 7.02049 16.5429L24.5752 9.65911C24.5752 9.65227 26.0176 9.01653 26.0176 10.0693Z" fill="white"/>
<path d="M13.4805 25.6484C13.4805 25.6484 13.2686 25.6279 13.0088 24.8008C12.749 23.9736 11.416 19.5986 11.416 19.5986L22.0186 12.8652C22.0186 12.8652 22.6338 12.4961 22.6065 12.8652C22.6065 12.8652 22.7158 12.9336 22.3877 13.2344C22.0596 13.542 14.0615 20.7334 14.0615 20.7334" fill="#D2E4F0"/>
<path d="M16.8027 22.9824L13.9521 25.5869C13.9521 25.5869 13.7266 25.7578 13.4873 25.6484L14.0342 20.8154" fill="#B5CFE4"/>
</svg>
