<svg width="17" height="16" viewBox="0 0 17 16" fill="none" xmlns="http://www.w3.org/2000/svg">
<path d="M8.66001 8.35251L1.25001 15.755C1.10653 15.8779 0.921975 15.9421 0.733217 15.9348C0.544461 15.9275 0.365405 15.8493 0.231835 15.7157C0.098264 15.5821 0.0200141 15.4031 0.0127233 15.2143C0.00543243 15.0255 0.0696376 14.841 0.192507 14.6975L6.98751 7.90251L0.387508 1.30251C0.24782 1.16199 0.169414 0.9719 0.169414 0.773761C0.169414 0.575622 0.24782 0.385533 0.387508 0.245011C0.457231 0.174715 0.54018 0.118919 0.631575 0.0808429C0.722969 0.0427663 0.820998 0.0231625 0.920007 0.0231625C1.01902 0.0231625 1.11705 0.0427664 1.20844 0.0808429C1.29983 0.118919 1.38279 0.174715 1.45251 0.245011L8.66001 7.45251C8.77908 7.572 8.84595 7.73382 8.84595 7.90251C8.84595 8.07121 8.77908 8.23302 8.66001 8.35251Z"/>
<path d="M15.8451 8.35251L8.43507 15.755C8.29159 15.8779 8.10703 15.9421 7.91828 15.9348C7.72952 15.9275 7.55046 15.8493 7.41689 15.7157C7.28332 15.5821 7.20507 15.4031 7.19778 15.2143C7.19049 15.0255 7.2547 14.841 7.37756 14.6975L14.1726 7.90251L7.57257 1.30251C7.43288 1.16199 7.35447 0.9719 7.35447 0.77376C7.35447 0.575621 7.43288 0.385532 7.57257 0.24501C7.71309 0.105322 7.90318 0.0269161 8.10132 0.0269162C8.29946 0.0269162 8.48954 0.105322 8.63007 0.245011L15.8451 7.45251C15.9641 7.572 16.031 7.73382 16.031 7.90251C16.031 8.0712 15.9641 8.23302 15.8451 8.35251Z"/>
</svg>
