<svg width="17" height="16" viewBox="0 0 17 16" fill="none" xmlns="http://www.w3.org/2000/svg">
<path d="M8.33999 8.35251L15.75 15.755C15.8935 15.8779 16.078 15.9421 16.2668 15.9348C16.4555 15.9275 16.6346 15.8493 16.7682 15.7157C16.9017 15.5821 16.98 15.4031 16.9873 15.2143C16.9946 15.0255 16.9304 14.841 16.8075 14.6975L10.0125 7.90251L16.6125 1.30251C16.7522 1.16199 16.8306 0.971901 16.8306 0.773762C16.8306 0.575623 16.7522 0.385534 16.6125 0.245012V0.245012C16.5428 0.174716 16.4598 0.11892 16.3684 0.0808436C16.277 0.0427671 16.179 0.0231632 16.08 0.0231632C15.981 0.0231632 15.883 0.042767 15.7916 0.0808435C15.7002 0.11892 15.6172 0.174716 15.5475 0.245012L8.33999 7.45251C8.22091 7.572 8.15405 7.73382 8.15405 7.90251C8.15405 8.0712 8.22091 8.23302 8.33999 8.35251V8.35251Z" fill="#BABCBF"/>
<path d="M1.15493 8.35251L8.56493 15.755C8.70841 15.8779 8.89297 15.9421 9.08172 15.9348C9.27048 15.9275 9.44953 15.8493 9.58311 15.7157C9.71668 15.5821 9.79493 15.4031 9.80222 15.2143C9.80951 15.0255 9.7453 14.841 9.62243 14.6975L2.82743 7.90251L9.42743 1.30251C9.56712 1.16199 9.64553 0.9719 9.64553 0.773761C9.64553 0.575622 9.56712 0.385533 9.42743 0.245011C9.28691 0.105323 9.09682 0.0269169 8.89868 0.0269169C8.70054 0.0269168 8.51046 0.105323 8.36993 0.245011L1.15493 7.45251C1.03586 7.572 0.968994 7.73382 0.968994 7.90251C0.968994 8.0712 1.03586 8.23302 1.15493 8.35251Z" fill="#BABCBF"/>
</svg>
