<svg width="26" height="26" viewBox="0 0 26 26" fill="none" xmlns="http://www.w3.org/2000/svg">
<path d="M13 12.4584C15.3932 12.4584 17.3333 10.5183 17.3333 8.12508C17.3333 5.73185 15.3932 3.79175 13 3.79175C10.6067 3.79175 8.66663 5.73185 8.66663 8.12508C8.66663 10.5183 10.6067 12.4584 13 12.4584Z" fill="white"/>
<path d="M21.6666 22.2084V17.8751C21.6666 17.2251 21.3416 16.5751 20.8 16.1417C19.6083 15.1667 18.0916 14.5167 16.575 14.0834C15.4916 13.7584 14.3 13.5417 13 13.5417C11.8083 13.5417 10.6166 13.7584 9.42498 14.0834C7.90831 14.5167 6.39165 15.2751 5.19998 16.1417C4.65831 16.5751 4.33331 17.2251 4.33331 17.8751V22.2084H21.6666Z" fill="white"/>
</svg>
