<svg width="25" height="14" viewBox="0 0 25 14" fill="none" xmlns="http://www.w3.org/2000/svg">
<path fill-rule="evenodd" clip-rule="evenodd" d="M12.318 13.8962H13.7313C13.7313 13.8962 14.1602 13.847 14.3781 13.615C14.582 13.397 14.575 12.9962 14.575 12.9962C14.575 12.9962 14.5469 11.0978 15.4258 10.8236C16.2906 10.5494 17.4086 12.6517 18.5899 13.4673C19.4828 14.079 20.1578 13.9454 20.1578 13.9454L23.3149 13.9033C23.3149 13.9033 24.9672 13.8048 24.1797 12.504C24.1164 12.3986 23.7227 11.5408 21.8313 9.78998C19.8555 7.95482 20.1156 8.25013 22.4992 5.07201C23.9547 3.13842 24.5313 1.95717 24.3485 1.45092C24.1727 0.965759 23.1109 1.09935 23.1109 1.09935L19.5531 1.12045C19.5531 1.12045 19.293 1.08529 19.0961 1.19779C18.9063 1.31029 18.7797 1.57748 18.7797 1.57748C18.7797 1.57748 18.2172 3.07513 17.4649 4.34779C15.8828 7.03373 15.25 7.17435 14.9899 7.01263C14.3852 6.61888 14.5399 5.4517 14.5399 4.61498C14.5399 2.01342 14.9336 0.923572 13.7734 0.642322C13.3867 0.550916 13.1055 0.487634 12.1141 0.480603C10.8484 0.466541 9.77266 0.480603 9.16094 0.782947C8.76016 0.979822 8.44375 1.42279 8.6336 1.44388C8.86563 1.47201 9.40001 1.59154 9.68126 1.97123C10.0469 2.46342 10.0328 3.58138 10.0328 3.58138C10.0328 3.58138 10.2438 6.64701 9.54063 7.0267C9.06251 7.28685 8.40157 6.75248 6.99532 4.31967C6.2711 3.0681 5.72969 1.68998 5.72969 1.68998C5.72969 1.68998 5.62422 1.42982 5.43438 1.29623C5.20235 1.12748 4.88594 1.07826 4.88594 1.07826L1.51094 1.09935C1.51094 1.09935 1.00469 1.11342 0.814843 1.33138C0.653124 1.52826 0.800781 1.93607 0.800781 1.93607C0.800781 1.93607 3.44453 8.12357 6.43985 11.2384C9.20313 14.0861 12.318 13.8962 12.318 13.8962Z" fill="#182C4F"/>
</svg>
