<svg width="24" height="18" viewBox="0 0 24 18" fill="none" xmlns="http://www.w3.org/2000/svg">
<path d="M23.4552 3.20777C23.1816 2.17097 22.3716 1.35737 21.342 1.08017C19.4772 0.576172 12.0036 0.576172 12.0036 0.576172C12.0036 0.576172 4.5264 0.576172 2.6652 1.08017C1.6356 1.35737 0.8256 2.17097 0.552 3.20777C0.0480003 5.08337 0.0480003 9.00017 0.0480003 9.00017C0.0480003 9.00017 0.0480001 12.917 0.5484 14.7926C0.822 15.8294 1.632 16.643 2.6616 16.9202C4.5264 17.4242 12 17.4242 12 17.4242C12 17.4242 19.4772 17.4242 21.3384 16.9202C22.368 16.643 23.178 15.8294 23.4516 14.7926C23.952 12.917 23.952 9.00017 23.952 9.00017C23.952 9.00017 23.952 5.08337 23.4552 3.20777ZM9.5556 12.5534V5.44697L15.8016 9.00017L9.5556 12.5534Z" fill="#182C4F"/>
</svg>
